# xmcd
#
# Track frame offsets:
# 150
# 11127
# 23534
# 35789
# 44099
# 54251
# 65832
# 79305
# 90661
# 102530
# 110383
# 126589
# 140422
# 153968
#
# Disc length: 2181 seconds
#
#
# Revision: 0
# Processed by: cddbd v1.5.2PL0 Copyright (c) Steve Scherf et al.
# Submitted via: Nero 7, 2, 3, 2 
#
DISCID=c508830e
DTITLE=Wood Guthrie - American Folk Legend
DYEAR=2005
DGENRE=Country
TTITLE0=Pastures Of Plenty
TTITLE1=So Long, It's Been Good To Know You
TTITLE2=Hard, Ain't It Hard
TTITLE3=Car Song
TTITLE4=Ramblin' Round
TTITLE5=Ship In The Sky
TTITLE6=Sinking Of The Reuben James
TTITLE7=Do-Re-Mi
TTITLE8=Jesus Christ
TTITLE9=When The Curfew Blows (Curfew Blow)
TTITLE10=1913 Massacre
TTITLE11=Talking Fishing Blues
TTITLE12=Pretty Boy Floyd
TTITLE13=Grand Coulee Dam
EXTD=
EXTT0=
EXTT1=
EXTT2=
EXTT3=
EXTT4=
EXTT5=
EXTT6=
EXTT7=
EXTT8=
EXTT9=
EXTT10=
EXTT11=
EXTT12=
EXTT13=
PLAYORDER=
